<mxfile host="app.diagrams.net" modified="2023-09-23T00:07:23.208Z" agent="Mozilla/5.0 (Windows NT 10.0; Win64; x64) AppleWebKit/537.36 (KHTML, like Gecko) Chrome/117.0.0.0 Safari/537.36" version="21.8.1" etag="rDtXMNdgrO1PreGJSffm" type="github">
  <diagram name="PÃ¡gina-1" id="Bn9oK6vwt9Lg89wmtEZ3">
    <mxGraphModel>
      <root>
        <mxCell id="0" />
        <mxCell id="1" parent="0" />
      </root>
    </mxGraphModel>
  </diagram>
</mxfile>
